<?xml version="1.0" encoding="UTF-8"?>
<svg width="300px" height="100px" viewBox="0 0 300 100" version="1.1" xmlns="http://www.w3.org/2000/svg" xmlns:xlink="http://www.w3.org/1999/xlink">
    <title>Logo - Light</title>
    <defs>
        <filter x="-6.1%" y="-8.3%" width="112.1%" height="116.5%" filterUnits="objectBoundingBox" id="filter-1">
            <feOffset dx="0" dy="0" in="SourceAlpha" result="shadowOffsetOuter1"></feOffset>
            <feGaussianBlur stdDeviation="2.5" in="shadowOffsetOuter1" result="shadowBlurOuter1"></feGaussianBlur>
            <feColorMatrix values="0 0 0 0 0   0 0 0 0 0   0 0 0 0 0  0 0 0 0.5 0" type="matrix" in="shadowBlurOuter1" result="shadowMatrixOuter1"></feColorMatrix>
            <feMerge>
                <feMergeNode in="shadowMatrixOuter1"></feMergeNode>
                <feMergeNode in="SourceGraphic"></feMergeNode>
            </feMerge>
        </filter>
        <linearGradient x1="-15.1560354%" y1="-19.4455159%" x2="-15.1560354%" y2="96.4616424%" id="linearGradient-2">
            <stop stop-color="#FFFFFF" stop-opacity="0.445749563" offset="0%"></stop>
            <stop stop-color="#FFFFFF" stop-opacity="0.45" offset="100%"></stop>
        </linearGradient>
        <linearGradient x1="-15.1560354%" y1="-19.4455159%" x2="-15.1560354%" y2="96.4616424%" id="linearGradient-3">
            <stop stop-color="#FFFFFF" stop-opacity="0.445749563" offset="0%"></stop>
            <stop stop-color="#FFFFFF" stop-opacity="0.45" offset="100%"></stop>
        </linearGradient>
        <linearGradient x1="-15.1560354%" y1="-19.4455159%" x2="-15.1560354%" y2="96.4616424%" id="linearGradient-4">
            <stop stop-color="#FFFFFF" stop-opacity="0.445749563" offset="0%"></stop>
            <stop stop-color="#FFFFFF" stop-opacity="0.45" offset="100%"></stop>
        </linearGradient>
        <filter x="-4.7%" y="-11.4%" width="109.5%" height="122.8%" filterUnits="objectBoundingBox" id="filter-5">
            <feOffset dx="0" dy="0" in="SourceAlpha" result="shadowOffsetOuter1"></feOffset>
            <feGaussianBlur stdDeviation="2.5" in="shadowOffsetOuter1" result="shadowBlurOuter1"></feGaussianBlur>
            <feColorMatrix values="0 0 0 0 0   0 0 0 0 0   0 0 0 0 0  0 0 0 0.5 0" type="matrix" in="shadowBlurOuter1" result="shadowMatrixOuter1"></feColorMatrix>
            <feMerge>
                <feMergeNode in="shadowMatrixOuter1"></feMergeNode>
                <feMergeNode in="SourceGraphic"></feMergeNode>
            </feMerge>
        </filter>
        <linearGradient x1="-15.1560354%" y1="-19.4455159%" x2="-15.1560354%" y2="96.4616424%" id="linearGradient-6">
            <stop stop-color="#FFFFFF" stop-opacity="0.445749563" offset="0%"></stop>
            <stop stop-color="#FFFFFF" stop-opacity="0.45" offset="100%"></stop>
        </linearGradient>
        <linearGradient x1="-15.1560354%" y1="-19.4455159%" x2="-15.1560354%" y2="96.4616424%" id="linearGradient-7">
            <stop stop-color="#FFFFFF" stop-opacity="0.445749563" offset="0%"></stop>
            <stop stop-color="#FFFFFF" stop-opacity="0.45" offset="100%"></stop>
        </linearGradient>
        <linearGradient x1="-15.1560354%" y1="-19.4455159%" x2="-15.1560354%" y2="96.4616424%" id="linearGradient-8">
            <stop stop-color="#FFFFFF" stop-opacity="0.445749563" offset="0%"></stop>
            <stop stop-color="#FFFFFF" stop-opacity="0.45" offset="100%"></stop>
        </linearGradient>
        <linearGradient x1="-15.1560354%" y1="-19.4455159%" x2="-15.1560354%" y2="96.4616424%" id="linearGradient-9">
            <stop stop-color="#FFFFFF" stop-opacity="0.445749563" offset="0%"></stop>
            <stop stop-color="#FFFFFF" stop-opacity="0.45" offset="100%"></stop>
        </linearGradient>
        <linearGradient x1="-15.1560354%" y1="-19.4455159%" x2="-15.1560354%" y2="96.4616424%" id="linearGradient-10">
            <stop stop-color="#FFFFFF" stop-opacity="0.445749563" offset="0%"></stop>
            <stop stop-color="#FFFFFF" stop-opacity="0.45" offset="100%"></stop>
        </linearGradient>
        <linearGradient x1="-15.1560354%" y1="-19.4455159%" x2="-15.1560354%" y2="96.4616424%" id="linearGradient-11">
            <stop stop-color="#FFFFFF" stop-opacity="0.445749563" offset="0%"></stop>
            <stop stop-color="#FFFFFF" stop-opacity="0.45" offset="100%"></stop>
        </linearGradient>
        <linearGradient x1="-15.1560354%" y1="-19.4455159%" x2="-15.1560354%" y2="96.4616424%" id="linearGradient-12">
            <stop stop-color="#FFFFFF" stop-opacity="0.445749563" offset="0%"></stop>
            <stop stop-color="#FFFFFF" stop-opacity="0.45" offset="100%"></stop>
        </linearGradient>
        <linearGradient x1="-15.1560354%" y1="-19.4455159%" x2="-15.1560354%" y2="96.4616424%" id="linearGradient-13">
            <stop stop-color="#FFFFFF" stop-opacity="0.445749563" offset="0%"></stop>
            <stop stop-color="#FFFFFF" stop-opacity="0.45" offset="100%"></stop>
        </linearGradient>
    </defs>
    <g id="Logo---Light" stroke="none" stroke-width="1" fill="none" fill-rule="evenodd">
        <g id="Isotype" filter="url(#filter-1)" transform="translate(1.2764, 1.2766)">
            <g id="Icon" transform="translate(0, 0)">
                <path d="M74.8956596,65.8668936 L74.8956596,96.8630638 L80.8531064,96.8630638 L80.8531064,65.8668936 C80.8531064,59.545617 85.9960851,54.4026383 92.3173617,54.4026383 L131.916936,54.4026383 L131.916936,48.4451915 L92.3173617,48.4451915 C82.7109787,48.4451915 74.8956596,56.2605106 74.8956596,65.8668936" id="Fill-1" stroke="url(#linearGradient-2)" fill="#04577A"></path>
                <path d="M39.5995745,48.4450213 L6.04717222e-15,48.4450213 L6.04717222e-15,54.4024681 L39.5995745,54.4024681 C45.9208511,54.4024681 51.0638298,59.5454468 51.0638298,65.8667234 L51.0638298,96.8628936 L57.0212766,96.8628936 L57.0212766,65.8667234 C57.0212766,56.2603404 49.2059574,48.4450213 39.5995745,48.4450213" id="Fill-7" stroke="url(#linearGradient-2)" fill="#04577A"></path>
                <path d="M93.1685957,36.5301277 C81.2013617,36.5301277 70.838383,43.5292766 65.958383,53.6492766 C61.078383,43.5292766 50.7154043,36.5301277 38.7485957,36.5301277 L8.5106383e-05,36.5301277 L8.5106383e-05,42.4875745 L38.7485957,42.4875745 C52.1090213,42.4875745 62.9788085,53.3573617 62.9788085,66.7177872 L62.9788085,96.8628936 L68.938383,96.8628936 L68.938383,66.7177872 C68.938383,53.3573617 79.8081702,42.4875745 93.1685957,42.4875745 L131.917106,42.4875745 L131.917106,36.5301277 L93.1685957,36.5301277 Z" id="Fill-4" stroke="url(#linearGradient-3)" fill="#06A9F7"></path>
                <path d="M83.3056596,17.347234 C83.3056596,7.76680851 75.5392766,0 65.9584255,0 C56.378,0 48.611617,7.76680851 48.611617,17.347234 C48.611617,26.9276596 56.378,34.6944681 65.9584255,34.6944681 C75.5392766,34.6944681 83.3056596,26.9276596 83.3056596,17.347234" id="Fill-10" stroke="url(#linearGradient-4)" fill="#06A9F7"></path>
            </g>
        </g>
        <g id="THIRD-IMPACT" filter="url(#filter-5)" transform="translate(129.4766, 11.9149)" fill="#04577A" fill-rule="nonzero">
            <polygon id="Path" stroke="url(#linearGradient-6)" points="9.99765957 31.7106383 9.99765957 5.59340426 0 5.59340426 0 0 25.9851064 0 25.9851064 5.59340426 15.9874468 5.59340426 15.9874468 31.7106383"></polygon>
            <polygon id="Path" stroke="url(#linearGradient-7)" points="28.8255319 31.7106383 28.8255319 0 34.8153191 0 34.8153191 13.0365957 48.9970213 13.0365957 48.9970213 0 54.9868085 0 54.9868085 31.7106383 48.9970213 31.7106383 48.9970213 18.63 34.8153191 18.63 34.8153191 31.7106383"></polygon>
            <polygon id="Path" stroke="url(#linearGradient-8)" points="60.906383 31.7106383 60.906383 0 66.8961702 0 66.8961702 31.7106383"></polygon>
            <path d="M87.4544149,0.0330319149 C87.9755851,0.0550531915 88.4417021,0.102765957 88.852766,0.176170213 C90.7465957,0.469787234 92.2990957,1.0937234 93.510266,2.04797872 C94.7214362,3.00223404 95.6132979,4.20239362 96.1858511,5.64845745 C96.7584043,7.09452128 97.0446809,8.70574468 97.0446809,10.4821277 C97.0446809,13.1393617 96.3840426,15.4112234 95.062766,17.2977128 C94.2470213,18.4624149 93.1458842,19.3515175 91.7593547,19.9650205 L97.4851064,31.7106383 L90.7025532,31.7106383 L85.4942766,20.964 L78.8110638,20.9642553 L78.8110638,31.7106383 L72.8212766,31.7106383 L72.8212766,0 L86.2102128,0 C86.5185106,0 86.9332447,0.0110106383 87.4544149,0.0330319149 Z M78.8110638,15.3708511 L85.9459574,15.3708511 C86.2542553,15.3708511 86.5919149,15.3561702 86.9589362,15.3268085 C87.3259574,15.2974468 87.663617,15.2387234 87.9719149,15.1506383 C88.7793617,14.9304255 89.4032979,14.559734 89.8437234,14.0385638 C90.2841489,13.5173936 90.5887766,12.9375 90.7576064,12.298883 C90.9264362,11.660266 91.0108511,11.0546809 91.0108511,10.4821277 C91.0108511,9.90957447 90.9264362,9.30398936 90.7576064,8.66537234 C90.5887766,8.02675532 90.2841489,7.4468617 89.8437234,6.92569149 C89.4032979,6.40452128 88.7793617,6.03382979 87.9719149,5.81361702 C87.663617,5.72553191 87.3259574,5.66680851 86.9589362,5.63744681 C86.5919149,5.60808511 86.2542553,5.59340426 85.9459574,5.59340426 L78.8110638,5.59340426 L78.8110638,15.3708511 Z" id="Shape" stroke="url(#linearGradient-9)"></path>
            <path d="M101.642553,31.7106383 L101.642553,0 L111.904468,0 C112.154043,0 112.667872,0.00734042553 113.445957,0.0220212766 C114.224043,0.0367021277 114.972766,0.0880851064 115.692128,0.176170213 C118.246596,0.484468085 120.412021,1.37265957 122.188404,2.84074468 C123.964787,4.30882979 125.315426,6.17329787 126.240319,8.43414894 C127.165213,10.695 127.62766,13.1687234 127.62766,15.8553191 C127.62766,18.5419149 127.165213,21.0156383 126.240319,23.2764894 C125.315426,25.5373404 123.964787,27.4018085 122.188404,28.8698936 C120.412021,30.3379787 118.246596,31.2261702 115.692128,31.5344681 C114.972766,31.6225532 114.224043,31.6739362 113.445957,31.688617 C112.667872,31.7032979 112.154043,31.7106383 111.904468,31.7106383 L101.642553,31.7106383 Z M107.720426,26.0731915 L111.904468,26.0731915 C112.300851,26.0731915 112.836702,26.0621809 113.512021,26.0401596 C114.18734,26.0181383 114.796596,25.9557447 115.339787,25.8529787 C116.719787,25.5740426 117.846543,24.9280851 118.720053,23.9151064 C119.593564,22.9021277 120.239521,21.683617 120.657926,20.2595745 C121.07633,18.8355319 121.285532,17.3674468 121.285532,15.8553191 C121.285532,14.2697872 121.068989,12.765 120.635904,11.3409574 C120.202819,9.91691489 119.545851,8.71308511 118.665,7.72946809 C117.784149,6.74585106 116.675745,6.12191489 115.339787,5.85765957 C114.796596,5.74021277 114.18734,5.67414894 113.512021,5.65946809 C112.836702,5.64478723 112.300851,5.63744681 111.904468,5.63744681 L107.720426,5.63744681 L107.720426,26.0731915 Z" id="Shape" stroke="url(#linearGradient-6)"></path>
            <polygon id="Path" stroke="url(#linearGradient-8)" points="9.99023446 69.5829787 9.99023446 37.8723404 15.9800217 37.8723404 15.9800217 69.5829787"></polygon>
            <polygon id="Path" stroke="url(#linearGradient-10)" points="21.9022485 69.5829787 21.9022485 37.8723404 27.27544 37.8723404 37.7575677 58.9246809 48.2396953 37.8723404 53.6128868 37.8723404 53.6128868 69.5829787 48.0194825 69.5829787 48.0194825 50.6446809 38.8145889 69.5829787 36.7005464 69.5829787 27.4956528 50.6446809 27.4956528 69.5829787"></polygon>
            <path d="M59.0946881,69.5829787 L59.0946881,37.8723404 L72.4836243,37.8723404 C72.7919221,37.8723404 73.2066562,37.8833511 73.7278264,37.9053723 C74.2489966,37.9273936 74.7151136,37.9751064 75.1261774,38.0485106 C77.0200072,38.3421277 78.5725072,38.9660638 79.7836774,39.9203191 C80.9948477,40.8745745 81.8867094,42.074734 82.4592625,43.5207979 C83.0318157,44.9668617 83.3180923,46.5780851 83.3180923,48.3544681 C83.3180923,50.1308511 83.0281455,51.7420745 82.4482519,53.1881383 C81.8683583,54.6342021 80.9728264,55.8343617 79.7616562,56.788617 C78.550486,57.7428723 77.0053264,58.3668085 75.1261774,58.6604255 C74.7151136,58.7191489 74.2453264,58.7631915 73.7168157,58.7925532 C73.1883051,58.8219149 72.7772413,58.8365957 72.4836243,58.8365957 L65.0844753,58.8365957 L65.0844753,69.5829787 L59.0946881,69.5829787 Z M65.0844753,53.2431915 L72.2193689,53.2431915 C72.5276668,53.2431915 72.8653264,53.2285106 73.2323477,53.1991489 C73.5993689,53.1697872 73.9370285,53.1110638 74.2453264,53.0229787 C75.0527732,52.802766 75.6767094,52.4320745 76.1171349,51.9109043 C76.5575604,51.389734 76.8621881,50.8098404 77.0310179,50.1712234 C77.1998477,49.5326064 77.2842625,48.9270213 77.2842625,48.3544681 C77.2842625,47.7819149 77.1998477,47.1763298 77.0310179,46.5377128 C76.8621881,45.8990957 76.5575604,45.3192021 76.1171349,44.7980319 C75.6767094,44.2768617 75.0527732,43.9061702 74.2453264,43.6859574 C73.9370285,43.5978723 73.5993689,43.5391489 73.2323477,43.5097872 C72.8653264,43.4804255 72.5276668,43.4657447 72.2193689,43.4657447 L65.0844753,43.4657447 L65.0844753,53.2431915 Z" id="Shape" stroke="url(#linearGradient-11)"></path>
            <path d="M101.263936,37.8723404 L110.953298,69.5829787 L104.78734,69.5829787 L102.742936,62.9763404 L90.8069362,62.9763404 L88.7998936,69.5829787 L82.6339362,69.5829787 L92.3232979,37.8723404 L101.263936,37.8723404 Z M96.722957,43.5148686 L92.5069362,57.3823404 L101.012936,57.3823404 L96.722957,43.5148686 Z" id="Shape" stroke="url(#linearGradient-12)"></path>
            <path d="M126.961269,70.243617 C123.790206,70.243617 121.055897,69.553617 118.758344,68.173617 C116.460791,66.793617 114.691748,64.8630851 113.451216,62.3820213 C112.210684,59.9009574 111.590418,57.0161702 111.590418,53.7276596 C111.590418,50.4391489 112.210684,47.5543617 113.451216,45.0732979 C114.691748,42.592234 116.460791,40.6617021 118.758344,39.2817021 C121.055897,37.9017021 123.790206,37.2117021 126.961269,37.2117021 C130.60212,37.2117021 133.659408,38.1145745 136.133131,39.9203191 C138.606854,41.7260638 140.350206,44.1704255 141.363184,47.2534043 L135.329354,48.9270213 C134.74212,47.0038298 133.751163,45.5100532 132.356482,44.4456915 C130.961801,43.3813298 129.163397,42.8491489 126.961269,42.8491489 C124.949993,42.8491489 123.272706,43.2969149 121.929408,44.1924468 C120.58611,45.0879787 119.576801,46.3505319 118.901482,47.9801064 C118.226163,49.6096809 117.888503,51.5255319 117.888503,53.7276596 C117.888503,55.9297872 118.226163,57.8456383 118.901482,59.4752128 C119.576801,61.1047872 120.58611,62.3673404 121.929408,63.2628723 C123.272706,64.1584043 124.949993,64.6061702 126.961269,64.6061702 C129.163397,64.6061702 130.961801,64.0703191 132.356482,62.998617 C133.751163,61.9269149 134.74212,60.4368085 135.329354,58.5282979 L141.363184,60.2019149 C140.350206,63.2848936 138.606854,65.7292553 136.133131,67.535 C133.659408,69.3407447 130.60212,70.243617 126.961269,70.243617 Z" id="Path" stroke="url(#linearGradient-13)"></path>
            <polygon id="Path" stroke="url(#linearGradient-6)" points="152.878815 69.5829787 152.878815 43.4657447 142.881156 43.4657447 142.881156 37.8723404 168.866262 37.8723404 168.866262 43.4657447 158.868603 43.4657447 158.868603 69.5829787"></polygon>
        </g>
    </g>
</svg>