<?xml version="1.0" encoding="UTF-8"?>
<svg width="259px" height="100px" viewBox="0 0 259 100" version="1.1" xmlns="http://www.w3.org/2000/svg" xmlns:xlink="http://www.w3.org/1999/xlink">
    <title>Option #1</title>
    <defs>
        <filter x="-6.1%" y="-8.3%" width="112.1%" height="116.5%" filterUnits="objectBoundingBox" id="filter-1">
            <feOffset dx="0" dy="0" in="SourceAlpha" result="shadowOffsetOuter1"></feOffset>
            <feGaussianBlur stdDeviation="2.5" in="shadowOffsetOuter1" result="shadowBlurOuter1"></feGaussianBlur>
            <feColorMatrix values="0 0 0 0 0   0 0 0 0 0   0 0 0 0 0  0 0 0 0.5 0" type="matrix" in="shadowBlurOuter1" result="shadowMatrixOuter1"></feColorMatrix>
            <feMerge>
                <feMergeNode in="shadowMatrixOuter1"></feMergeNode>
                <feMergeNode in="SourceGraphic"></feMergeNode>
            </feMerge>
        </filter>
        <linearGradient x1="-15.1560354%" y1="-19.4455159%" x2="-15.1560354%" y2="96.4616424%" id="linearGradient-2">
            <stop stop-color="#FFFFFF" stop-opacity="0.445749563" offset="0%"></stop>
            <stop stop-color="#FFFFFF" stop-opacity="0.45" offset="100%"></stop>
        </linearGradient>
        <linearGradient x1="-15.1560354%" y1="-19.4455159%" x2="-15.1560354%" y2="96.4616424%" id="linearGradient-3">
            <stop stop-color="#FFFFFF" stop-opacity="0.445749563" offset="0%"></stop>
            <stop stop-color="#FFFFFF" stop-opacity="0.45" offset="100%"></stop>
        </linearGradient>
        <linearGradient x1="-15.1560354%" y1="-19.4455159%" x2="-15.1560354%" y2="96.4616424%" id="linearGradient-4">
            <stop stop-color="#FFFFFF" stop-opacity="0.445749563" offset="0%"></stop>
            <stop stop-color="#FFFFFF" stop-opacity="0.45" offset="100%"></stop>
        </linearGradient>
        <filter x="-5.0%" y="-10.7%" width="110.1%" height="121.4%" filterUnits="objectBoundingBox" id="filter-5">
            <feOffset dx="0" dy="0" in="SourceAlpha" result="shadowOffsetOuter1"></feOffset>
            <feGaussianBlur stdDeviation="2.5" in="shadowOffsetOuter1" result="shadowBlurOuter1"></feGaussianBlur>
            <feColorMatrix values="0 0 0 0 0   0 0 0 0 0   0 0 0 0 0  0 0 0 0.5 0" type="matrix" in="shadowBlurOuter1" result="shadowMatrixOuter1"></feColorMatrix>
            <feMerge>
                <feMergeNode in="shadowMatrixOuter1"></feMergeNode>
                <feMergeNode in="SourceGraphic"></feMergeNode>
            </feMerge>
        </filter>
        <linearGradient x1="-15.1560354%" y1="-19.4455159%" x2="-15.1560354%" y2="96.4616424%" id="linearGradient-6">
            <stop stop-color="#FFFFFF" stop-opacity="0.445749563" offset="0%"></stop>
            <stop stop-color="#FFFFFF" stop-opacity="0.45" offset="100%"></stop>
        </linearGradient>
        <linearGradient x1="-15.1560354%" y1="-19.4455159%" x2="-15.1560354%" y2="96.4616424%" id="linearGradient-7">
            <stop stop-color="#FFFFFF" stop-opacity="0.445749563" offset="0%"></stop>
            <stop stop-color="#FFFFFF" stop-opacity="0.45" offset="100%"></stop>
        </linearGradient>
        <linearGradient x1="-15.1560354%" y1="-19.4455159%" x2="-15.1560354%" y2="96.4616424%" id="linearGradient-8">
            <stop stop-color="#FFFFFF" stop-opacity="0.445749563" offset="0%"></stop>
            <stop stop-color="#FFFFFF" stop-opacity="0.45" offset="100%"></stop>
        </linearGradient>
        <linearGradient x1="-15.1560354%" y1="-19.4455159%" x2="-15.1560354%" y2="96.4616424%" id="linearGradient-9">
            <stop stop-color="#FFFFFF" stop-opacity="0.445749563" offset="0%"></stop>
            <stop stop-color="#FFFFFF" stop-opacity="0.45" offset="100%"></stop>
        </linearGradient>
        <linearGradient x1="-15.1560354%" y1="-19.4455159%" x2="-15.1560354%" y2="96.4616424%" id="linearGradient-10">
            <stop stop-color="#FFFFFF" stop-opacity="0.445749563" offset="0%"></stop>
            <stop stop-color="#FFFFFF" stop-opacity="0.45" offset="100%"></stop>
        </linearGradient>
        <linearGradient x1="-15.1560354%" y1="-19.4455159%" x2="-15.1560354%" y2="96.4616424%" id="linearGradient-11">
            <stop stop-color="#FFFFFF" stop-opacity="0.445749563" offset="0%"></stop>
            <stop stop-color="#FFFFFF" stop-opacity="0.45" offset="100%"></stop>
        </linearGradient>
        <linearGradient x1="-15.1560354%" y1="-19.4455159%" x2="-15.1560354%" y2="96.4616424%" id="linearGradient-12">
            <stop stop-color="#FFFFFF" stop-opacity="0.445749563" offset="0%"></stop>
            <stop stop-color="#FFFFFF" stop-opacity="0.45" offset="100%"></stop>
        </linearGradient>
        <linearGradient x1="-15.1560354%" y1="-19.4455159%" x2="-15.1560354%" y2="96.4616424%" id="linearGradient-13">
            <stop stop-color="#FFFFFF" stop-opacity="0.445749563" offset="0%"></stop>
            <stop stop-color="#FFFFFF" stop-opacity="0.45" offset="100%"></stop>
        </linearGradient>
    </defs>
    <g id="Option-#1" stroke="none" stroke-width="1" fill="none" fill-rule="evenodd">
        <g id="Isotype" filter="url(#filter-1)" transform="translate(1.2778, 1.2766)">
            <g id="Icon" transform="translate(-0, 0)">
                <path d="M74.9757289,65.8668936 L74.9757289,96.8630638 L80.9395447,96.8630638 L80.9395447,65.8668936 C80.9395447,59.545617 86.0880217,54.4026383 92.4160562,54.4026383 L132.057966,54.4026383 L132.057966,48.4451915 L92.4160562,48.4451915 C82.7994033,48.4451915 74.9757289,56.2605106 74.9757289,65.8668936" id="Fill-1" stroke="url(#linearGradient-2)" fill="#04577A"></path>
                <path d="M39.6419095,48.4450213 L6.05363712e-15,48.4450213 L6.05363712e-15,54.4024681 L39.6419095,54.4024681 C45.9699441,54.4024681 51.1184211,59.5454468 51.1184211,65.8667234 L51.1184211,96.8628936 L57.0822368,96.8628936 L57.0822368,65.8667234 C57.0822368,56.2603404 49.2585625,48.4450213 39.6419095,48.4450213" id="Fill-7" stroke="url(#linearGradient-2)" fill="#04577A"></path>
                <path d="M93.2682003,36.5301277 C81.2881724,36.5301277 70.9141148,43.5292766 66.0288977,53.6492766 C61.1436806,43.5292766 50.769623,36.5301277 38.7900211,36.5301277 L8.51973684e-05,36.5301277 L8.51973684e-05,42.4875745 L38.7900211,42.4875745 C52.1647299,42.4875745 63.0461378,53.3573617 63.0461378,66.7177872 L63.0461378,96.8628936 L69.0120836,96.8628936 L69.0120836,66.7177872 C69.0120836,53.3573617 79.8934914,42.4875745 93.2682003,42.4875745 L132.058136,42.4875745 L132.058136,36.5301277 L93.2682003,36.5301277 Z" id="Fill-4" stroke="url(#linearGradient-3)" fill="#06A9F7"></path>
                <path d="M83.3947199,17.347234 C83.3947199,7.76680851 75.620034,0 66.0289403,0 C56.4382725,0 48.6635867,7.76680851 48.6635867,17.347234 C48.6635867,26.9276596 56.4382725,34.6944681 66.0289403,34.6944681 C75.620034,34.6944681 83.3947199,26.9276596 83.3947199,17.347234" id="Fill-10" stroke="url(#linearGradient-4)" fill="#06A9F7"></path>
            </g>
        </g>
        <g id="THIRD-IMPACT" filter="url(#filter-5)" transform="translate(97.8692, 24.0426)" fill="#04577A" fill-rule="nonzero">
            <polygon id="Path" stroke="url(#linearGradient-6)" points="41.3281567 31.7106383 41.3281567 5.59340426 31.3198089 5.59340426 31.3198089 0 57.3326954 0 57.3326954 5.59340426 47.3243475 5.59340426 47.3243475 31.7106383"></polygon>
            <polygon id="Path" stroke="url(#linearGradient-7)" points="60.1761576 31.7106383 60.1761576 0 66.1723484 0 66.1723484 13.0365957 80.3692118 13.0365957 80.3692118 0 86.3654026 0 86.3654026 31.7106383 80.3692118 31.7106383 80.3692118 18.63 66.1723484 18.63 66.1723484 31.7106383"></polygon>
            <polygon id="Path" stroke="url(#linearGradient-8)" points="92.2913056 31.7106383 92.2913056 0 98.2874964 0 98.2874964 31.7106383"></polygon>
            <path d="M118.867719,0.0330319149 C119.389447,0.0550531915 119.856062,0.102765957 120.267565,0.176170213 C122.16342,0.469787234 123.71758,1.0937234 124.930045,2.04797872 C126.14251,3.00223404 127.035325,4.20239362 127.60849,5.64845745 C128.181656,7.09452128 128.468238,8.70574468 128.468238,10.4821277 C128.468238,13.1393617 127.806894,15.4112234 126.484204,17.2977128 C125.667588,18.4624149 124.565273,19.3515175 123.177262,19.9650205 L128.909135,31.7106383 L122.11933,31.7106383 L116.904937,20.964 L110.215128,20.9642553 L110.215128,31.7106383 L104.218937,31.7106383 L104.218937,0 L117.622187,0 C117.930815,0 118.345992,0.0110106383 118.867719,0.0330319149 Z M110.215128,15.3708511 L117.357649,15.3708511 C117.666277,15.3708511 118.004297,15.3561702 118.371711,15.3268085 C118.739125,15.2974468 119.077145,15.2387234 119.385773,15.1506383 C120.194083,14.9304255 120.818686,14.559734 121.259582,14.0385638 C121.700479,13.5173936 122.005432,12.9375 122.174442,12.298883 C122.343453,11.660266 122.427958,11.0546809 122.427958,10.4821277 C122.427958,9.90957447 122.343453,9.30398936 122.174442,8.66537234 C122.005432,8.02675532 121.700479,7.4468617 121.259582,6.92569149 C120.818686,6.40452128 120.194083,6.03382979 119.385773,5.81361702 C119.077145,5.72553191 118.739125,5.66680851 118.371711,5.63744681 C118.004297,5.60808511 117.666277,5.59340426 117.357649,5.59340426 L110.215128,5.59340426 L110.215128,15.3708511 Z" id="Shape" stroke="url(#linearGradient-9)"></path>
            <path d="M133.071026,31.7106383 L133.071026,0 L143.343912,0 C143.593753,0 144.108132,0.00734042553 144.887049,0.0220212766 C145.665966,0.0367021277 146.41549,0.0880851064 147.135621,0.176170213 C149.69282,0.484468085 151.86056,1.37265957 153.638842,2.84074468 C155.417124,4.30882979 156.769206,6.17329787 157.695089,8.43414894 C158.620971,10.695 159.083912,13.1687234 159.083912,15.8553191 C159.083912,18.5419149 158.620971,21.0156383 157.695089,23.2764894 C156.769206,25.5373404 155.417124,27.4018085 153.638842,28.8698936 C151.86056,30.3379787 149.69282,31.2261702 147.135621,31.5344681 C146.41549,31.6225532 145.665966,31.6739362 144.887049,31.688617 C144.108132,31.7032979 143.593753,31.7106383 143.343912,31.7106383 L133.071026,31.7106383 Z M139.155396,26.0731915 L143.343912,26.0731915 C143.740718,26.0731915 144.277142,26.0621809 144.953183,26.0401596 C145.629225,26.0181383 146.239131,25.9557447 146.782903,25.8529787 C148.164379,25.5740426 149.292339,24.9280851 150.166783,23.9151064 C151.041228,22.9021277 151.687876,21.683617 152.106727,20.2595745 C152.525579,18.8355319 152.735005,17.3674468 152.735005,15.8553191 C152.735005,14.2697872 152.518231,12.765 152.084682,11.3409574 C151.651134,9.91691489 150.993464,8.71308511 150.111671,7.72946809 C149.229878,6.74585106 148.120289,6.12191489 146.782903,5.85765957 C146.239131,5.74021277 145.629225,5.67414894 144.953183,5.65946809 C144.277142,5.64478723 143.740718,5.63744681 143.343912,5.63744681 L139.155396,5.63744681 L139.155396,26.0731915 Z" id="Shape" stroke="url(#linearGradient-6)"></path>
            <polygon id="Path" stroke="url(#linearGradient-8)" points="-1.21072742e-14 74.0510638 -1.21072742e-14 42.3404255 5.99619079 42.3404255 5.99619079 74.0510638"></polygon>
            <polygon id="Path" stroke="url(#linearGradient-10)" points="11.9247489 74.0510638 11.9247489 42.3404255 17.3036848 42.3404255 27.7970187 63.392766 38.2903525 42.3404255 43.6692884 42.3404255 43.6692884 74.0510638 38.0699044 74.0510638 38.0699044 55.112766 28.85517 74.0510638 26.7388674 74.0510638 17.524133 55.112766 17.524133 74.0510638"></polygon>
            <path d="M49.1569502,74.0510638 L49.1569502,42.3404255 L62.5602002,42.3404255 C62.8688276,42.3404255 63.2840051,42.3514362 63.8057324,42.3734574 C64.3274598,42.3954787 64.7940752,42.4431915 65.2055785,42.5165957 C67.1014329,42.8102128 68.6555926,43.4341489 69.8680577,44.3884043 C71.0805227,45.3426596 71.9733379,46.5428191 72.5465032,47.988883 C73.1196685,49.4349468 73.4062511,51.0461702 73.4062511,52.8225532 C73.4062511,54.5989362 73.1159944,56.2101596 72.5354808,57.6562234 C71.9549672,59.1022872 71.0584779,60.3024468 69.8460129,61.2567021 C68.6335478,62.2109574 67.0867363,62.8348936 65.2055785,63.1285106 C64.7940752,63.187234 64.3237857,63.2312766 63.79471,63.2606383 C63.2656344,63.29 62.8541311,63.3046809 62.5602002,63.3046809 L55.153141,63.3046809 L55.153141,74.0510638 L49.1569502,74.0510638 Z M55.153141,57.7112766 L62.2956623,57.7112766 C62.6042898,57.7112766 62.9423104,57.6965957 63.309724,57.667234 C63.6771377,57.6378723 64.0151582,57.5791489 64.3237857,57.4910638 C65.1320957,57.2708511 65.7566989,56.9001596 66.1975953,56.3789894 C66.6384917,55.8578191 66.943445,55.2779255 67.1124553,54.6393085 C67.2814656,54.0006915 67.3659707,53.3951064 67.3659707,52.8225532 C67.3659707,52.25 67.2814656,51.6444149 67.1124553,51.0057979 C66.943445,50.3671809 66.6384917,49.7872872 66.1975953,49.266117 C65.7566989,48.7449468 65.1320957,48.3742553 64.3237857,48.1540426 C64.0151582,48.0659574 63.6771377,48.007234 63.309724,47.9778723 C62.9423104,47.9485106 62.6042898,47.9338298 62.2956623,47.9338298 L55.153141,47.9338298 L55.153141,57.7112766 Z" id="Shape" stroke="url(#linearGradient-11)"></path>
            <path d="M91.3712805,42.3404255 L101.071001,74.0510638 L94.8984516,74.0510638 L92.8523636,67.4444255 L80.9033636,67.4444255 L78.8939129,74.0510638 L72.7213636,74.0510638 L82.421084,42.3404255 L91.3712805,42.3404255 Z M86.8254467,47.9829537 L82.6053636,61.8504255 L91.1203636,61.8504255 L86.8254467,47.9829537 Z" id="Shape" stroke="url(#linearGradient-12)"></path>
            <path d="M117.096086,74.7117021 C113.921632,74.7117021 111.184401,74.0217021 108.884391,72.6417021 C106.584382,71.2617021 104.813448,69.3311702 103.57159,66.8501064 C102.329732,64.3690426 101.708802,61.4842553 101.708802,58.1957447 C101.708802,54.907234 102.329732,52.0224468 103.57159,49.541383 C104.813448,47.0603191 106.584382,45.1297872 108.884391,43.7497872 C111.184401,42.3697872 113.921632,41.6797872 117.096086,41.6797872 C120.74083,41.6797872 123.801385,42.5826596 126.277753,44.3884043 C128.754121,46.1941489 130.499336,48.6385106 131.513398,51.7214894 L125.473117,53.3951064 C124.885256,51.4719149 123.893239,49.9781383 122.497067,48.9137766 C121.100895,47.8494149 119.300568,47.317234 117.096086,47.317234 C115.082659,47.317234 113.403579,47.765 112.058845,48.6605319 C110.714111,49.5560638 109.703724,50.818617 109.027682,52.4481915 C108.351641,54.077766 108.013621,55.993617 108.013621,58.1957447 C108.013621,60.3978723 108.351641,62.3137234 109.027682,63.9432979 C109.703724,65.5728723 110.714111,66.8354255 112.058845,67.7309574 C113.403579,68.6264894 115.082659,69.0742553 117.096086,69.0742553 C119.300568,69.0742553 121.100895,68.5384043 122.497067,67.4667021 C123.893239,66.395 124.885256,64.9048936 125.473117,62.996383 L131.513398,64.67 C130.499336,67.7529787 128.754121,70.1973404 126.277753,72.0030851 C123.801385,73.8088298 120.74083,74.7117021 117.096086,74.7117021 Z" id="Path" stroke="url(#linearGradient-13)"></path>
            <polygon id="Path" stroke="url(#linearGradient-6)" points="143.04134 74.0510638 143.04134 47.9338298 133.032992 47.9338298 133.032992 42.3404255 159.045879 42.3404255 159.045879 47.9338298 149.037531 47.9338298 149.037531 74.0510638"></polygon>
        </g>
    </g>
</svg>