<?xml version="1.0" encoding="UTF-8"?>
<svg width="705px" height="235px" viewBox="0 0 705 235" version="1.1" xmlns="http://www.w3.org/2000/svg" xmlns:xlink="http://www.w3.org/1999/xlink">
    <title>Logo - Light</title>
    <defs>
        <filter x="-2.6%" y="-3.5%" width="105.2%" height="107.0%" filterUnits="objectBoundingBox" id="filter-1">
            <feOffset dx="0" dy="0" in="SourceAlpha" result="shadowOffsetOuter1"></feOffset>
            <feGaussianBlur stdDeviation="2.5" in="shadowOffsetOuter1" result="shadowBlurOuter1"></feGaussianBlur>
            <feColorMatrix values="0 0 0 0 0   0 0 0 0 0   0 0 0 0 0  0 0 0 0.5 0" type="matrix" in="shadowBlurOuter1" result="shadowMatrixOuter1"></feColorMatrix>
            <feMerge>
                <feMergeNode in="shadowMatrixOuter1"></feMergeNode>
                <feMergeNode in="SourceGraphic"></feMergeNode>
            </feMerge>
        </filter>
        <linearGradient x1="-15.1560354%" y1="-19.4455159%" x2="-15.1560354%" y2="96.4616424%" id="linearGradient-2">
            <stop stop-color="#FFFFFF" stop-opacity="0.445749563" offset="0%"></stop>
            <stop stop-color="#FFFFFF" stop-opacity="0.45" offset="100%"></stop>
        </linearGradient>
        <linearGradient x1="-15.1560354%" y1="-19.4455159%" x2="-15.1560354%" y2="96.4616424%" id="linearGradient-3">
            <stop stop-color="#FFFFFF" stop-opacity="0.445749563" offset="0%"></stop>
            <stop stop-color="#FFFFFF" stop-opacity="0.45" offset="100%"></stop>
        </linearGradient>
        <linearGradient x1="-15.1560354%" y1="-19.4455159%" x2="-15.1560354%" y2="96.4616424%" id="linearGradient-4">
            <stop stop-color="#FFFFFF" stop-opacity="0.445749563" offset="0%"></stop>
            <stop stop-color="#FFFFFF" stop-opacity="0.45" offset="100%"></stop>
        </linearGradient>
        <filter x="-2.0%" y="-4.8%" width="104.0%" height="109.7%" filterUnits="objectBoundingBox" id="filter-5">
            <feOffset dx="0" dy="0" in="SourceAlpha" result="shadowOffsetOuter1"></feOffset>
            <feGaussianBlur stdDeviation="2.5" in="shadowOffsetOuter1" result="shadowBlurOuter1"></feGaussianBlur>
            <feColorMatrix values="0 0 0 0 0   0 0 0 0 0   0 0 0 0 0  0 0 0 0.5 0" type="matrix" in="shadowBlurOuter1" result="shadowMatrixOuter1"></feColorMatrix>
            <feMerge>
                <feMergeNode in="shadowMatrixOuter1"></feMergeNode>
                <feMergeNode in="SourceGraphic"></feMergeNode>
            </feMerge>
        </filter>
        <linearGradient x1="-15.1560354%" y1="-19.4455159%" x2="-15.1560354%" y2="96.4616424%" id="linearGradient-6">
            <stop stop-color="#FFFFFF" stop-opacity="0.445749563" offset="0%"></stop>
            <stop stop-color="#FFFFFF" stop-opacity="0.45" offset="100%"></stop>
        </linearGradient>
        <linearGradient x1="-15.1560354%" y1="-19.4455159%" x2="-15.1560354%" y2="96.4616424%" id="linearGradient-7">
            <stop stop-color="#FFFFFF" stop-opacity="0.445749563" offset="0%"></stop>
            <stop stop-color="#FFFFFF" stop-opacity="0.45" offset="100%"></stop>
        </linearGradient>
        <linearGradient x1="-15.1560354%" y1="-19.4455159%" x2="-15.1560354%" y2="96.4616424%" id="linearGradient-8">
            <stop stop-color="#FFFFFF" stop-opacity="0.445749563" offset="0%"></stop>
            <stop stop-color="#FFFFFF" stop-opacity="0.45" offset="100%"></stop>
        </linearGradient>
        <linearGradient x1="-15.1560354%" y1="-19.4455159%" x2="-15.1560354%" y2="96.4616424%" id="linearGradient-9">
            <stop stop-color="#FFFFFF" stop-opacity="0.445749563" offset="0%"></stop>
            <stop stop-color="#FFFFFF" stop-opacity="0.45" offset="100%"></stop>
        </linearGradient>
        <linearGradient x1="-15.1560354%" y1="-19.4455159%" x2="-15.1560354%" y2="96.4616424%" id="linearGradient-10">
            <stop stop-color="#FFFFFF" stop-opacity="0.445749563" offset="0%"></stop>
            <stop stop-color="#FFFFFF" stop-opacity="0.45" offset="100%"></stop>
        </linearGradient>
        <linearGradient x1="-15.1560354%" y1="-19.4455159%" x2="-15.1560354%" y2="96.4616424%" id="linearGradient-11">
            <stop stop-color="#FFFFFF" stop-opacity="0.445749563" offset="0%"></stop>
            <stop stop-color="#FFFFFF" stop-opacity="0.45" offset="100%"></stop>
        </linearGradient>
        <linearGradient x1="-15.1560354%" y1="-19.4455159%" x2="-15.1560354%" y2="96.4616424%" id="linearGradient-12">
            <stop stop-color="#FFFFFF" stop-opacity="0.445749563" offset="0%"></stop>
            <stop stop-color="#FFFFFF" stop-opacity="0.45" offset="100%"></stop>
        </linearGradient>
        <linearGradient x1="-15.1560354%" y1="-19.4455159%" x2="-15.1560354%" y2="96.4616424%" id="linearGradient-13">
            <stop stop-color="#FFFFFF" stop-opacity="0.445749563" offset="0%"></stop>
            <stop stop-color="#FFFFFF" stop-opacity="0.45" offset="100%"></stop>
        </linearGradient>
    </defs>
    <g id="Logo---Light" stroke="none" stroke-width="1" fill="none" fill-rule="evenodd">
        <g id="Isotype" filter="url(#filter-1)" transform="translate(2.9996, 3)">
            <g id="Icon">
                <path d="M176.0048,154.7872 L176.0048,227.6282 L190.0048,227.6282 L190.0048,154.7872 C190.0048,139.9322 202.0908,127.8462 216.9458,127.8462 L310.0048,127.8462 L310.0048,113.8462 L216.9458,113.8462 C194.3708,113.8462 176.0048,132.2122 176.0048,154.7872" id="Fill-1" stroke="url(#linearGradient-2)" fill="#04577A"></path>
                <path d="M93.059,113.8458 L1.42108547e-14,113.8458 L1.42108547e-14,127.8458 L93.059,127.8458 C107.914,127.8458 120,139.9318 120,154.7868 L120,227.6278 L134,227.6278 L134,154.7868 C134,132.2118 115.634,113.8458 93.059,113.8458" id="Fill-7" stroke="url(#linearGradient-2)" fill="#04577A"></path>
                <path d="M218.9462,85.8458 C190.8232,85.8458 166.4702,102.2938 155.0022,126.0758 C143.5342,102.2938 119.1812,85.8458 91.0592,85.8458 L0.0002,85.8458 L0.0002,99.8458 L91.0592,99.8458 C122.4562,99.8458 148.0002,125.3898 148.0002,156.7868 L148.0002,227.6278 L162.0052,227.6278 L162.0052,156.7868 C162.0052,125.3898 187.5492,99.8458 218.9462,99.8458 L310.0052,99.8458 L310.0052,85.8458 L218.9462,85.8458 Z" id="Fill-4" stroke="url(#linearGradient-3)" fill="#06A9F7"></path>
                <path d="M195.7683,40.766 C195.7683,18.252 177.5173,0 155.0023,0 C132.4883,0 114.2373,18.252 114.2373,40.766 C114.2373,63.28 132.4883,81.532 155.0023,81.532 C177.5173,81.532 195.7683,63.28 195.7683,40.766" id="Fill-10" stroke="url(#linearGradient-4)" fill="#06A9F7"></path>
            </g>
        </g>
        <g id="THIRD-IMPACT" filter="url(#filter-5)" transform="translate(304.27, 28)" fill="#04577A" fill-rule="nonzero">
            <polygon id="Path" stroke="url(#linearGradient-6)" points="23.4945 74.52 23.4945 13.1445 0 13.1445 0 0 61.065 0 61.065 13.1445 37.5705 13.1445 37.5705 74.52"></polygon>
            <polygon id="Path" stroke="url(#linearGradient-7)" points="67.74 74.52 67.74 0 81.816 0 81.816 30.636 115.143 30.636 115.143 0 129.219 0 129.219 74.52 115.143 74.52 115.143 43.7805 81.816 43.7805 81.816 74.52"></polygon>
            <polygon id="Path" stroke="url(#linearGradient-8)" points="143.13 74.52 143.13 0 157.206 0 157.206 74.52"></polygon>
            <path d="M205.517875,0.077625 C206.742625,0.129375 207.838,0.2415 208.804,0.414 C213.2545,1.104 216.902875,2.57025 219.749125,4.81275 C222.595375,7.05525 224.69125,9.875625 226.03675,13.273875 C227.38225,16.672125 228.055,20.4585 228.055,24.633 C228.055,30.8775 226.5025,36.216375 223.3975,40.649625 C221.480502,43.3866726 218.892832,45.4760624 215.634492,46.9177944 L229.09,74.52 L213.151,74.52 L200.912,49.265 L185.206,49.266 L185.206,74.52 L171.13,74.52 L171.13,0 L202.594,0 C203.3185,0 204.293125,0.025875 205.517875,0.077625 Z M185.206,36.1215 L201.973,36.1215 C202.6975,36.1215 203.491,36.087 204.3535,36.018 C205.216,35.949 206.0095,35.811 206.734,35.604 C208.6315,35.0865 210.09775,34.215375 211.13275,32.990625 C212.16775,31.765875 212.883625,30.403125 213.280375,28.902375 C213.677125,27.401625 213.8755,25.9785 213.8755,24.633 C213.8755,23.2875 213.677125,21.864375 213.280375,20.363625 C212.883625,18.862875 212.16775,17.500125 211.13275,16.275375 C210.09775,15.050625 208.6315,14.1795 206.734,13.662 C206.0095,13.455 205.216,13.317 204.3535,13.248 C203.491,13.179 202.6975,13.1445 201.973,13.1445 L185.206,13.1445 L185.206,36.1215 Z" id="Shape" stroke="url(#linearGradient-9)"></path>
            <path d="M238.86,74.52 L238.86,0 L262.9755,0 C263.562,0 264.7695,0.01725 266.598,0.05175 C268.4265,0.08625 270.186,0.207 271.8765,0.414 C277.8795,1.1385 282.96825,3.22575 287.14275,6.67575 C291.31725,10.12575 294.49125,14.50725 296.66475,19.82025 C298.83825,25.13325 299.925,30.9465 299.925,37.26 C299.925,43.5735 298.83825,49.38675 296.66475,54.69975 C294.49125,60.01275 291.31725,64.39425 287.14275,67.84425 C282.96825,71.29425 277.8795,73.3815 271.8765,74.106 C270.186,74.313 268.4265,74.43375 266.598,74.46825 C264.7695,74.50275 263.562,74.52 262.9755,74.52 L238.86,74.52 Z M253.143,61.272 L262.9755,61.272 C263.907,61.272 265.16625,61.246125 266.75325,61.194375 C268.34025,61.142625 269.772,60.996 271.0485,60.7545 C274.2915,60.099 276.939375,58.581 278.992125,56.2005 C281.044875,53.82 282.562875,50.9565 283.546125,47.61 C284.529375,44.2635 285.021,40.8135 285.021,37.26 C285.021,33.534 284.512125,29.99775 283.494375,26.65125 C282.476625,23.30475 280.93275,20.47575 278.86275,18.16425 C276.79275,15.85275 274.188,14.3865 271.0485,13.7655 C269.772,13.4895 268.34025,13.33425 266.75325,13.29975 C265.16625,13.26525 263.907,13.248 262.9755,13.248 L253.143,13.248 L253.143,61.272 Z" id="Shape" stroke="url(#linearGradient-6)"></path>
            <polygon id="Path" stroke="url(#linearGradient-8)" points="23.477051 163.52 23.477051 89 37.553051 89 37.553051 163.52"></polygon>
            <polygon id="Path" stroke="url(#linearGradient-10)" points="51.470284 163.52 51.470284 89 64.097284 89 88.730284 138.473 113.363284 89 125.990284 89 125.990284 163.52 112.845784 163.52 112.845784 119.015 91.214284 163.52 86.246284 163.52 64.614784 119.015 64.614784 163.52"></polygon>
            <path d="M138.872517,163.52 L138.872517,89 L170.336517,89 C171.061017,89 172.035642,89.025875 173.260392,89.077625 C174.485142,89.129375 175.580517,89.2415 176.546517,89.414 C180.997017,90.104 184.645392,91.57025 187.491642,93.81275 C190.337892,96.05525 192.433767,98.875625 193.779267,102.273875 C195.124767,105.672125 195.797517,109.4585 195.797517,113.633 C195.797517,117.8075 195.116142,121.593875 193.753392,124.992125 C192.390642,128.390375 190.286142,131.21075 187.439892,133.45325 C184.593642,135.69575 180.962517,137.162 176.546517,137.852 C175.580517,137.99 174.476517,138.0935 173.234517,138.1625 C171.992517,138.2315 171.026517,138.266 170.336517,138.266 L152.948517,138.266 L152.948517,163.52 L138.872517,163.52 Z M152.948517,125.1215 L169.715517,125.1215 C170.440017,125.1215 171.233517,125.087 172.096017,125.018 C172.958517,124.949 173.752017,124.811 174.476517,124.604 C176.374017,124.0865 177.840267,123.215375 178.875267,121.990625 C179.910267,120.765875 180.626142,119.403125 181.022892,117.902375 C181.419642,116.401625 181.618017,114.9785 181.618017,113.633 C181.618017,112.2875 181.419642,110.864375 181.022892,109.363625 C180.626142,107.862875 179.910267,106.500125 178.875267,105.275375 C177.840267,104.050625 176.374017,103.1795 174.476517,102.662 C173.752017,102.455 172.958517,102.317 172.096017,102.248 C171.233517,102.179 170.440017,102.1445 169.715517,102.1445 L152.948517,102.1445 L152.948517,125.1215 Z" id="Shape" stroke="url(#linearGradient-11)"></path>
            <path d="M237.97025,89 L260.74025,163.52 L246.25025,163.52 L241.44675,147.995 L213.39775,147.995 L208.67975,163.52 L194.18975,163.52 L216.95975,89 L237.97025,89 Z M227.298949,102.259941 L217.39275,134.85 L237.38075,134.85 L227.298949,102.259941 Z" id="Shape" stroke="url(#linearGradient-12)"></path>
            <path d="M298.358983,165.0725 C290.906983,165.0725 284.481358,163.451 279.082108,160.208 C273.682858,156.965 269.525608,152.42825 266.610358,146.59775 C263.695108,140.76725 262.237483,133.988 262.237483,126.26 C262.237483,118.532 263.695108,111.75275 266.610358,105.92225 C269.525608,100.09175 273.682858,95.555 279.082108,92.312 C284.481358,89.069 290.906983,87.4475 298.358983,87.4475 C306.914983,87.4475 314.099608,89.56925 319.912858,93.81275 C325.726108,98.05625 329.822983,103.8005 332.203483,111.0455 L318.023983,114.9785 C316.643983,110.459 314.315233,106.948625 311.037733,104.447375 C307.760233,101.946125 303.533983,100.6955 298.358983,100.6955 C293.632483,100.6955 289.690858,101.74775 286.534108,103.85225 C283.377358,105.95675 281.005483,108.92375 279.418483,112.75325 C277.831483,116.58275 277.037983,121.085 277.037983,126.26 C277.037983,131.435 277.831483,135.93725 279.418483,139.76675 C281.005483,143.59625 283.377358,146.56325 286.534108,148.66775 C289.690858,150.77225 293.632483,151.8245 298.358983,151.8245 C303.533983,151.8245 307.760233,150.56525 311.037733,148.04675 C314.315233,145.52825 316.643983,142.0265 318.023983,137.5415 L332.203483,141.4745 C329.822983,148.7195 325.726108,154.46375 319.912858,158.70725 C314.099608,162.95075 306.914983,165.0725 298.358983,165.0725 Z" id="Path" stroke="url(#linearGradient-13)"></path>
            <polygon id="Path" stroke="url(#linearGradient-6)" points="359.265216 163.52 359.265216 102.1445 335.770716 102.1445 335.770716 89 396.835716 89 396.835716 102.1445 373.341216 102.1445 373.341216 163.52"></polygon>
        </g>
    </g>
</svg>